<?xml version="1.0" standalone="no"?>
<!DOCTYPE svg PUBLIC "-//W3C//DTD SVG 1.1//EN" "http://www.w3.org/Graphics/SVG/1.1/DTD/svg11.dtd" >
<svg>
<metadata>
Created by FontForge 20090914 at Fri Jun 14 05:30:05 2013
 By www-data
Copyright (c) 2011 by Riley Cran. All rights reserved.
</metadata>
<defs>
<font id="Muncie" horiz-adv-x="266" >
  <font-face 
    font-family="Muncie"
    font-weight="400"
    font-stretch="normal"
    units-per-em="1000"
    panose-1="2 0 0 0 0 0 0 0 0 0"
    ascent="750"
    descent="-250"
    x-height="732"
    cap-height="732"
    bbox="0 -69 641 775"
    underline-thickness="50"
    underline-position="-50"
    unicode-range="U+0020-U+007E"
  />
<missing-glyph horiz-adv-x="262" 
 />
    <glyph glyph-name=".notdef" horiz-adv-x="262" 
 />
    <glyph glyph-name="space" unicode=" " horiz-adv-x="250" 
 />
    <glyph glyph-name="space" unicode="&#xa0;" horiz-adv-x="250" 
 />
    <glyph glyph-name="exclam" unicode="!" horiz-adv-x="205" 
d="M73 734h59v-614h-59v614v0zM73 -1v61h59v-61h-59v0z" />
    <glyph glyph-name="quotedbl" unicode="&#x22;" horiz-adv-x="200" 
d="M1 775h59v-60v0v-60h-59v60v0v60zM163 775v-60v0v-60h-59v60v0v60h59z" />
    <glyph glyph-name="numbersign" unicode="#" horiz-adv-x="509" 
d="M436 513h-76v-102h76v-57h-76v-75h-57v75h-103v-75h-57v75h-75v57h75v102h-75v58h75v75h57v-75h103v75h57v-75h76v-58v0zM303 411v102h-103v-102h103v0z" />
    <glyph glyph-name="dollar" unicode="$" horiz-adv-x="264" 
d="M209 519h-49v82h-58v-211h50l50 -48v-262l-50 -52v-29h-53v32l-48 49v119h53v-117h48v255h-50l-49 53v221l49 43h2v46h55v-46h1l49 -53v-82v0z" />
    <glyph glyph-name="percent" unicode="%" horiz-adv-x="657" 
d="M466 672l50 -26l-327 -621l-50 26zM228 421l-56 -58h-56l-57 58v4v130v4l57 58h56l56 -58v-4v-130v-4zM118 425v-2h54v2v130v2h-54v-2v-130zM539 334l56 -58v-3v-131v-3l-56 -58h-56l-57 58v3v131v3l57 58h56zM539 142v131v1h-54v-1v-131v-1h54v1z" />
    <glyph glyph-name="ampersand" unicode="&#x26;" horiz-adv-x="297" 
d="M348 314l-28 -32l28 -31h-30h-59v-191l-60 -61h-133l-59 61v254l54 53l-54 54v249l50 66h8h5h125l60 -58v-144h-62v144h-123h-5v-257l54 -54l-54 -53v-252h1h131v252h62v0h59h30v0z" />
    <glyph glyph-name="quotesingle" unicode="'" horiz-adv-x="114" 
d="M27 774h59v-60v0v-60h-59v60v0v60v0z" />
    <glyph glyph-name="parenleft" unicode="(" horiz-adv-x="220" 
d="M173 775v-60h-61v-717h61v-61h-61h-8l-53 70v699l53 69h69v0z" />
    <glyph glyph-name="parenright" unicode=")" horiz-adv-x="206" 
d="M107 775l53 -69v-699l-53 -70h-8h-61v61h61v717h-61v60h69v0z" />
    <glyph glyph-name="asterisk" unicode="*" horiz-adv-x="246" 
d="M206 714l-27 -30l27 -30h-29h-25v-25v-30l-30 28l-30 -28v30v25h-26h-29l27 30l-27 30h29h26v25v30l30 -28l30 28v-30v-25h25h29v0z" />
    <glyph glyph-name="plus" unicode="+" horiz-adv-x="292" 
d="M241 293h-68v-68h-56v68h-68v57h68v68h56v-68h68v-57v0z" />
    <glyph glyph-name="comma" unicode="," horiz-adv-x="136" 
d="M96 60v-60l-37 -60h-23l23 60h-23v60h60v0z" />
    <glyph glyph-name="hyphen" unicode="-" horiz-adv-x="288" 
d="M231 420v-66h-180v66h180v0z" />
    <glyph glyph-name="period" unicode="." horiz-adv-x="133" 
d="M100 58v-60h-59v60h59z" />
    <glyph glyph-name="slash" unicode="/" horiz-adv-x="485" 
d="M114 -1l-54 22l296 681l55 -22z" />
    <glyph glyph-name="zero" unicode="0" horiz-adv-x="294" 
d="M242 63l-45 -64h-99l-46 64v604l46 66h99l45 -66v-604v0zM184 671h-74v-608h74v608v0z" />
    <glyph glyph-name="one" unicode="1" horiz-adv-x="214" 
d="M156 732v-732h-58v651l-32 -34l-42 42l73 73l1 -1v1h58v0z" />
    <glyph glyph-name="two" unicode="2" horiz-adv-x="274" 
d="M233 61v-61h-57h-125v50v258l57 63h59v298h-57v-137h-61v139l59 61h59l58 -61v-306l-58 -57h-59v-247h68h57v0z" />
    <glyph glyph-name="three" unicode="3" 
d="M219 379l-26 -25l26 -25v-270l-59 -61h-58l-60 61v140h62v-138h56v262h-58h-58l29 31l-29 31h58h58v284h-56v-95h-62v97l60 61h58l59 -61v-292v0z" />
    <glyph glyph-name="four" unicode="4" horiz-adv-x="276" 
d="M224 732v-425v-309h-57h-1v309h-58l-58 57v368h58v-362h58v362h58v0z" />
    <glyph glyph-name="five" unicode="5" horiz-adv-x="288" 
d="M227 59l-56 -61h-59l-59 61v140h61v-138h57v247h-59h-58v365v59h58h115v-59h-115v-303h115v-311v0z" />
    <glyph glyph-name="six" unicode="6" horiz-adv-x="278" 
d="M228 532h-61v137h-56v-275v-23h58l58 -63v-248l-58 -60h-59l-58 60v311v23v277l58 61h59l59 -61v-139v0zM169 308h-58v-246h58v246v0z" />
    <glyph glyph-name="seven" unicode="7" horiz-adv-x="298" 
d="M211 340l26 -28h-26h-37l-53 -314h-58l53 314h-22h-34l26 28l-27 25h34h31l50 305h-114v62h58h67h58l-62 -367h29h26l-25 -25v0z" />
    <glyph glyph-name="eight" unicode="8" horiz-adv-x="270" 
d="M222 308v-248l-58 -61h-59l-59 61v248l30 33l-30 30v23v278l59 61h59l58 -61v-301l-29 -30l29 -33v0zM164 371v299h-58v-276v-23h58v0zM164 61v247h-58v-247h58v0z" />
    <glyph glyph-name="nine" unicode="9" horiz-adv-x="260" 
d="M216 672v-612l-59 -61h-57l-60 61v141h61v-140h55v247h-56l-59 64v300l59 61h57l59 -61v0zM100 372h56v299h-56v-299v0z" />
    <glyph glyph-name="colon" unicode=":" horiz-adv-x="149" 
d="M100 214v-60h-59v60h59zM100 514v-60h-59v60h59z" />
    <glyph glyph-name="semicolon" unicode=";" horiz-adv-x="164" 
d="M45 242h69v-69l-42 -69h-27l27 69h-27v69zM108 512v-60h-59v60h59z" />
    <glyph glyph-name="less" unicode="&#x3c;" horiz-adv-x="352" 
d="M289 568l-180 -179l180 -180l-34 -34l-213 214l213 213l34 -34v0z" />
    <glyph glyph-name="equal" unicode="=" horiz-adv-x="324" 
d="M258 407v-59h-198v59h198zM258 289v-59h-198v59h198z" />
    <glyph glyph-name="greater" unicode="&#x3e;" horiz-adv-x="352" 
d="M81 578l213 -213l-213 -214l-34 34l180 180l-180 179l34 34v0z" />
    <glyph glyph-name="question" unicode="?" horiz-adv-x="290" 
d="M179 733l55 -48v-259l-55 -61h-59v-246h-56v253l56 54h59v248h-68v-94h-55v94l55 59h68v0zM64 0v58h56v-58h-56v0z" />
    <glyph glyph-name="at" unicode="@" horiz-adv-x="552" 
d="M500 573v-267v-66h-66h-122h-5h-67l-67 69v3v156v3l67 69h67l34 -34l32 34v-69v-159v-6h61v268h-312v-367h376l-65 -67h-309l-69 68v364l68 69h308l69 -68v0zM307 468v1h-65v-1v-156v-1h65v1v156v0z" />
    <glyph glyph-name="A" unicode="A" horiz-adv-x="242" 
d="M151 735l73 -735h-57l-19 201h-51l-20 -201h-57l73 735v0h58v0zM126 258h16l-14 166h-12l-14 -166h16h8z" />
    <glyph glyph-name="B" unicode="B" 
d="M231 684v-241l-40 -40l40 -39v-105v-193v0l-59 -68h-129v47v23v131v176v64v294h54h4h72zM101 680v-248h71v248h-71zM172 66v193v116h-71v-309h71z" />
    <glyph glyph-name="C" unicode="C" horiz-adv-x="242" 
d="M221 577h-58v94h-69v-610h69v138h58v-138l-44 -63h-90l-51 63v0v0v0v605l51 67h90l44 -67v-89v0z" />
    <glyph glyph-name="D" unicode="D" 
d="M184 733l44 -67v-5v-84v-378v-38v-100l-44 -63h-141v63v0v672h141zM170 577v84v10h-69v-610h69v100v38v378z" />
    <glyph glyph-name="E" unicode="E" horiz-adv-x="218" 
d="M197 671h-94v-245h94v-61h-94v-304h94v-63h-152v63v304v61v307h152v-62v0z" />
    <glyph glyph-name="F" unicode="F" horiz-adv-x="219" 
d="M195 671h-93v-244h93v-60h-93v-304v-63h-58v63v304v60v306h151v-62v0z" />
    <glyph glyph-name="G" unicode="G" horiz-adv-x="262" 
d="M170 59v308h-31v56h89v0v-56v-306v0l-44 -60h-89l-51 60v0v0v605l51 66h89l44 -66v-89h-58v93h-68v-609l68 -2v0z" />
    <glyph glyph-name="H" unicode="H" horiz-adv-x="273" 
d="M170 733h59v-732h-59v366h-68v-366h-58v732h58v-306h68v306v0z" />
    <glyph glyph-name="I" unicode="I" horiz-adv-x="148" 
d="M51 0v732h58v-732h-58v0z" />
    <glyph glyph-name="J" unicode="J" 
d="M170 734h58v-679l-58 -55h-71l-58 47v154h58v-131h71v664v0z" />
    <glyph glyph-name="K" unicode="K" horiz-adv-x="312" 
d="M290 733l-134 -303l134 -432h-61l-109 356l-12 -29v-327h-58v735h58v-283l121 283h61v0z" />
    <glyph glyph-name="L" unicode="L" horiz-adv-x="203" 
d="M184 -1h-152v735h58v-675h94v-60v0z" />
    <glyph glyph-name="M" unicode="M" horiz-adv-x="332" 
d="M232 262h-10l-51 -142h-10l-50 142h-10v-263h-58v735h58l60 -403h11l60 403h59v-735h-59v263v0z" />
    <glyph glyph-name="N" unicode="N" horiz-adv-x="312" 
d="M214 732h59v-732h-59l-104 445h-2v-445h-58v732h58v0h2l104 -445v445v0z" />
    <glyph glyph-name="O" unicode="O" horiz-adv-x="250" 
d="M225 666v-605l-45 -62v0h-99v0l-45 62v605l45 67v0h99v0zM167 61v610h-73v-610h73z" />
    <glyph glyph-name="P" unicode="P" horiz-adv-x="257" 
d="M33 -1v734h140l45 -67v-234l-45 -66h-82v-367h-58zM160 423v246h-69v-246h69z" />
    <glyph glyph-name="Q" unicode="Q" horiz-adv-x="286" 
d="M238 666v-667v0l-57 58v-58v0h-87v0l-45 62v605l45 67v0h100v0zM108 671v-610h72v610h-72z" />
    <glyph glyph-name="R" unicode="R" horiz-adv-x="269" 
d="M48 732h129l54 -58v-241l-40 -39l40 -39v-355h-58v366h-67v-366h-58v732zM173 423v247h-67v-247h67z" />
    <glyph glyph-name="S" unicode="S" 
d="M228 576h-58v95v0v0v0h-67v-247v0h58l58 -56v-306l-58 -60h-58l-59 60v140h61v-139h56v299h-58l-58 62v258l58 51h67l58 -62v-95v0z" />
    <glyph glyph-name="T" unicode="T" horiz-adv-x="235" 
d="M213 732v-47h-63v-686h-59v686h-63v47h63h59h63v0z" />
    <glyph glyph-name="U" unicode="U" horiz-adv-x="278" 
d="M106 733v-663v0h71v663h58v-685l-58 -47h-71l-58 47v685h58v0z" />
    <glyph glyph-name="V" unicode="V" horiz-adv-x="293" 
d="M153 309l39 424h57l-73 -733v0h-58v0l-73 733h57l39 -424h12v0z" />
    <glyph glyph-name="W" unicode="W" horiz-adv-x="359" 
d="M247 332l29 401h58l-34 -733h-59v0l-53 332h-12l-53 -332h-58l-36 732h58l29 -400h13l23 401h58l25 -401h12v0z" />
    <glyph glyph-name="X" unicode="X" horiz-adv-x="328" 
d="M288 733l-74 -367l74 -366h-58l-60 306h-11l-60 -306h-58l74 366l-74 367h58l60 -307h11l60 307h58v0z" />
    <glyph glyph-name="Y" unicode="Y" horiz-adv-x="289" 
d="M271 733l-94 -478v-255h-24h-10h-25v256l-94 477h58l60 -307h11l60 307h58v0z" />
    <glyph glyph-name="Z" unicode="Z" horiz-adv-x="231" 
d="M195 732v-47l-97 -639h97v-46h-155v46l97 639h-97v47h155v0z" />
    <glyph glyph-name="bracketleft" unicode="[" horiz-adv-x="227" 
d="M175 773v-68h-67v-706h67v-68h-123v68v706v68h123v0z" />
    <glyph glyph-name="backslash" unicode="\" horiz-adv-x="485" 
d="M114 -1l-54 22l296 681l55 -22z" />
    <glyph glyph-name="bracketright" unicode="]" horiz-adv-x="203" 
d="M164 773v-68v-706v-68h-123v68h67v706h-67v68h123v0z" />
    <glyph glyph-name="asciicircum" unicode="^" horiz-adv-x="406" 
d="M311 437l-106 248v0l-109 -248h-44l133 297h39l133 -297h-46v0z" />
    <glyph glyph-name="underscore" unicode="_" horiz-adv-x="338" 
d="M289 66v-66h-238v66h238v0z" />
    <glyph glyph-name="grave" unicode="`" horiz-adv-x="833" 
 />
    <glyph glyph-name="a" unicode="a" horiz-adv-x="242" 
d="M151 735l73 -735h-57l-19 201h-51l-20 -201h-57l73 735v0h58v0zM126 258h16l-14 166h-12l-14 -166h16h8z" />
    <glyph glyph-name="b" unicode="b" 
d="M231 684v-241l-40 -40l40 -39v-105v-193v0l-59 -68h-129v47v23v131v176v64v294h54h4h72zM101 680v-248h71v248h-71zM172 66v193v116h-71v-309h71z" />
    <glyph glyph-name="c" unicode="c" horiz-adv-x="242" 
d="M221 577h-58v94h-69v-610h69v138h58v-138l-44 -63h-90l-51 63v0v0v0v605l51 67h90l44 -67v-89v0z" />
    <glyph glyph-name="d" unicode="d" 
d="M184 733l44 -67v-5v-84v-378v-38v-100l-44 -63h-141v63v0v672h141zM170 577v84v10h-69v-610h69v100v38v378z" />
    <glyph glyph-name="e" unicode="e" horiz-adv-x="218" 
d="M197 671h-94v-245h94v-61h-94v-304h94v-63h-152v63v304v61v307h152v-62v0z" />
    <glyph glyph-name="f" unicode="f" horiz-adv-x="219" 
d="M195 671h-93v-244h93v-60h-93v-304v-63h-58v63v304v60v306h151v-62v0z" />
    <glyph glyph-name="g" unicode="g" horiz-adv-x="262" 
d="M170 59v308h-31v56h89v0v-56v-306v0l-44 -60h-89l-51 60v0v0v605l51 66h89l44 -66v-89h-58v93h-68v-609l68 -2v0z" />
    <glyph glyph-name="h" unicode="h" horiz-adv-x="273" 
d="M170 733h59v-732h-59v366h-68v-366h-58v732h58v-306h68v306v0z" />
    <glyph glyph-name="i" unicode="i" horiz-adv-x="148" 
d="M51 0v732h58v-732h-58v0z" />
    <glyph glyph-name="j" unicode="j" 
d="M170 734h58v-679l-58 -55h-71l-58 47v154h58v-131h71v664v0z" />
    <glyph glyph-name="k" unicode="k" horiz-adv-x="312" 
d="M290 733l-134 -303l134 -432h-61l-109 356l-12 -29v-327h-58v735h58v-283l121 283h61v0z" />
    <glyph glyph-name="l" unicode="l" horiz-adv-x="203" 
d="M184 -1h-152v735h58v-675h94v-60v0z" />
    <glyph glyph-name="m" unicode="m" horiz-adv-x="336" 
d="M232 262h-10l-51 -142h-10l-50 142h-10v-263h-58v735h58l60 -403h11l60 403h59v-735h-59v263v0z" />
    <glyph glyph-name="n" unicode="n" horiz-adv-x="312" 
d="M214 732h59v-732h-59l-104 445h-2v-445h-58v732h58v0h2l104 -445v445v0z" />
    <glyph glyph-name="o" unicode="o" horiz-adv-x="250" 
d="M225 666v-605l-45 -62v0h-99v0l-45 62v605l45 67v0h99v0zM167 61v610h-73v-610h73z" />
    <glyph glyph-name="p" unicode="p" horiz-adv-x="257" 
d="M33 -1v734h140l45 -67v-234l-45 -66h-82v-367h-58zM160 423v246h-69v-246h69z" />
    <glyph glyph-name="q" unicode="q" horiz-adv-x="286" 
d="M238 666v-667v0l-57 58v-58v0h-87v0l-45 62v605l45 67v0h100v0zM108 671v-610h72v610h-72z" />
    <glyph glyph-name="r" unicode="r" horiz-adv-x="269" 
d="M48 732h129l54 -58v-241l-40 -39l40 -39v-355h-58v366h-67v-366h-58v732zM173 423v247h-67v-247h67z" />
    <glyph glyph-name="s" unicode="s" 
d="M228 576h-58v95v0v0v0h-67v-247v0h58l58 -56v-306l-58 -60h-58l-59 60v140h61v-139h56v299h-58l-58 62v258l58 51h67l58 -62v-95v0z" />
    <glyph glyph-name="t" unicode="t" horiz-adv-x="235" 
d="M213 732v-47h-63v-686h-59v686h-63v47h63h59h63v0z" />
    <glyph glyph-name="u" unicode="u" horiz-adv-x="278" 
d="M106 733v-663v0h71v663h58v-685l-58 -47h-71l-58 47v685h58v0z" />
    <glyph glyph-name="v" unicode="v" horiz-adv-x="293" 
d="M153 309l39 424h57l-73 -733v0h-58v0l-73 733h57l39 -424h12v0z" />
    <glyph glyph-name="w" unicode="w" horiz-adv-x="359" 
d="M247 332l29 401h58l-34 -733h-59v0l-53 332h-12l-53 -332h-58l-36 732h58l29 -400h13l23 401h58l25 -401h12v0z" />
    <glyph glyph-name="x" unicode="x" horiz-adv-x="328" 
d="M288 733l-74 -367l74 -366h-58l-60 306h-11l-60 -306h-58l74 366l-74 367h58l60 -307h11l60 307h58v0z" />
    <glyph glyph-name="y" unicode="y" horiz-adv-x="289" 
d="M271 733l-94 -478v-255h-24h-10h-25v256l-94 477h58l60 -307h11l60 307h58v0z" />
    <glyph glyph-name="z" unicode="z" horiz-adv-x="231" 
d="M195 732v-47l-97 -639h97v-46h-155v46l97 639h-97v47h155v0z" />
    <glyph glyph-name="braceleft" unicode="{" horiz-adv-x="294" 
d="M120 715v-307l-44 -57l44 -56v-294h136v-57h-136l-56 68v12v271l-56 56l56 57v294l56 69h136v-56h-136v0z" />
    <glyph glyph-name="bar" unicode="|" horiz-adv-x="310" 
d="M181 -42h-57v814h57v-814v0z" />
    <glyph glyph-name="braceright" unicode="}" horiz-adv-x="312" 
d="M179 407v307h-136v56h136l56 -69v-294l56 -57l-56 -56v-271v-12l-56 -68h-136v57h136v294l44 56l-44 57v0z" />
    <glyph glyph-name="asciitilde" unicode="~" horiz-adv-x="376" 
d="M29 644l119 53l54 -19l14 -34l118 51l14 -35l-120 -53l-51 22l-13 33l-121 -52l-14 34v0z" />
    <glyph glyph-name=".null" horiz-adv-x="0" 
 />
    <glyph glyph-name="nonmarkingreturn" horiz-adv-x="262" 
 />
    <glyph glyph-name="percent.001" horiz-adv-x="640" 
d="M487 773l59 -31l-391 -743l-60 31zM202 473l-67 -69h-67l-68 69v4v156v5l68 69h67l67 -69v-5v-156v-4zM71 477v-2h64v2v156v2h-64v-2v-156zM574 369l67 -69v-5v-156v-4l-67 -69h-67l-68 69v4v156v5l68 69h67zM574 139v156v2h-64v-2v-156v-2h64v2z" />
    <glyph glyph-name="one.001" horiz-adv-x="833" 
 />
    <glyph glyph-name="one.002" horiz-adv-x="228" 
d="M106 700h56v-702h-56v624l-31 -32l-40 40l70 70l1 -1v1v0z" />
    <glyph glyph-name="six.001" horiz-adv-x="833" 
 />
    <glyph glyph-name="a.001" horiz-adv-x="257" 
d="M159 735l73 -735h-57l-19 201h-51l-20 -201h-57l73 735v0h58v0zM134 258h16l-14 166h-12l-14 -166h16h8z" />
    <glyph glyph-name="b.001" horiz-adv-x="273" 
d="M231 684v-241l-40 -40l40 -39v-105v-193v0l-59 -68h-129v47v23v131v176v64v294h54h4h72zM101 680v-248h71v248h-71zM172 66v193v116h-71v-309h71z" />
    <glyph glyph-name="c.001" 
d="M229 577h-58v94h-69v-610h69v138h58v-138l-44 -63h-90l-51 63v0v0v0v605l51 67h90l44 -67v-89v0z" />
    <glyph glyph-name="d.001" horiz-adv-x="281" 
d="M184 733l44 -67v-5v-84v-378v-38v-100l-44 -63h-141v63v0v672h141zM170 577v84v10h-69v-610h69v100v38v378z" />
    <glyph glyph-name="e.001" horiz-adv-x="243" 
d="M196 671h-94v-245h94v-61h-94v-304h94v-63h-152v63v304v61v307h152v-62v0z" />
    <glyph glyph-name="f.001" horiz-adv-x="234" 
d="M195 671h-93v-244h93v-60h-93v-304v-63h-58v63v304v60v306h151v-62v0z" />
    <glyph glyph-name="g.001" horiz-adv-x="262" 
d="M163 59v308h-31v56h89v0v-56v-306v0l-44 -60h-89l-51 60v0v0v605l51 66h89l44 -66v-89h-58v93h-68v-609l68 -2v0z" />
    <glyph glyph-name="h.001" horiz-adv-x="273" 
d="M170 733h59v-732h-59v366h-68v-366h-58v732h58v-306h68v306v0z" />
    <glyph glyph-name="i.001" horiz-adv-x="141" 
d="M44 0v732h58v-732h-58v0z" />
    <glyph glyph-name="j.001" horiz-adv-x="281" 
d="M170 734h58v-679l-58 -55h-71l-58 47v154h58v-131h71v664v0z" />
    <glyph glyph-name="k.001" horiz-adv-x="336" 
d="M290 733l-134 -303l134 -432h-61l-109 356l-12 -29v-327h-58v735h58v-283l121 283h61v0z" />
    <glyph glyph-name="l.001" horiz-adv-x="246" 
d="M199 -1h-152v735h58v-675h94v-60v0z" />
    <glyph glyph-name="m.001" horiz-adv-x="355" 
d="M242 262h-10l-51 -142h-10l-50 142h-10v-263h-58v735h58l60 -403h11l60 403h59v-735h-59v263v0z" />
    <glyph glyph-name="n.001" horiz-adv-x="329" 
d="M212 732h59v-732h-59l-104 445h-2v-445h-58v732h58v0h2l104 -445v445v0z" />
    <glyph glyph-name="o.001" horiz-adv-x="270" 
d="M233 666v-605l-45 -62v0h-99v0l-45 62v605l45 67v0h99v0zM175 61v610h-73v-610h73z" />
    <glyph glyph-name="p.001" horiz-adv-x="273" 
d="M57 -1v734h140l45 -67v-234l-45 -66h-82v-367h-58zM184 423v246h-69v-246h69z" />
    <glyph glyph-name="q.001" horiz-adv-x="286" 
d="M238 666v-667v0l-57 58v-58v0h-87v0l-45 62v605l45 67v0h100v0zM108 671v-610h72v610h-72z" />
    <glyph glyph-name="r.001" horiz-adv-x="269" 
d="M48 732h129l54 -58v-241l-40 -39l40 -39v-355h-58v366h-67v-366h-58v732zM173 423v247h-67v-247h67z" />
    <glyph glyph-name="s.001" 
d="M228 576h-58v95v0v0v0h-67v-247v0h58l58 -56v-306l-58 -60h-58l-59 60v140h61v-139h56v299h-58l-58 62v258l58 51h67l58 -62v-95v0z" />
    <glyph glyph-name="t.001" horiz-adv-x="269" 
d="M229 732v-47h-63v-686h-59v686h-63v47h63h59h63v0z" />
    <glyph glyph-name="u.001" horiz-adv-x="278" 
d="M106 733v-663v0h71v663h58v-685l-58 -47h-71l-58 47v685h58v0z" />
    <glyph glyph-name="v.001" horiz-adv-x="293" 
d="M153 309l39 424h57l-73 -733v0h-58v0l-73 733h57l39 -424h12v0z" />
    <glyph glyph-name="w.001" horiz-adv-x="394" 
d="M269 332l29 401h58l-34 -733h-59v0l-53 332h-12l-53 -332h-58l-36 732h58l29 -400h13l23 401h58l25 -401h12v0z" />
    <glyph glyph-name="x.001" horiz-adv-x="328" 
d="M288 733l-74 -367l74 -366h-58l-60 306h-11l-60 -306h-58l74 366l-74 367h58l60 -307h11l60 307h58v0z" />
    <glyph glyph-name="y.001" horiz-adv-x="328" 
d="M286 733l-94 -478v-255h-24h-10h-25v256l-94 477h58l60 -307h11l60 307h58v0z" />
    <glyph glyph-name="z.001" horiz-adv-x="231" 
d="M195 732v-47l-97 -639h97v-46h-155v46l97 639h-97v47h155v0z" />
    <glyph glyph-name="a.002" horiz-adv-x="242" 
d="M151 735l73 -735h-57l-19 201h-51l-20 -201h-57l73 735v0h58v0zM126 258h16l-14 166h-12l-14 -166h16h8z" />
    <glyph glyph-name="b.002" horiz-adv-x="273" 
d="M231 684v-241l-40 -40l40 -39v-105v-193v0l-59 -68h-129v47v23v131v176v64v294h54h4h72zM101 680v-248h71v248h-71zM172 66v193v116h-71v-309h71z" />
    <glyph glyph-name="c.002" 
d="M229 577h-58v94h-69v-610h69v138h58v-138l-44 -63h-90l-51 63v0v0v0v605l51 67h90l44 -67v-89v0z" />
    <glyph glyph-name="d.002" horiz-adv-x="281" 
d="M184 733l44 -67v-5v-84v-378v-38v-100l-44 -63h-141v63v0v672h141zM170 577v84v10h-69v-610h69v100v38v378z" />
    <glyph glyph-name="e.002" horiz-adv-x="243" 
d="M196 671h-94v-245h94v-61h-94v-304h94v-63h-152v63v304v61v307h152v-62v0z" />
    <glyph glyph-name="f.002" horiz-adv-x="234" 
d="M195 671h-93v-244h93v-60h-93v-304v-63h-58v63v304v60v306h151v-62v0z" />
    <glyph glyph-name="g.002" horiz-adv-x="262" 
d="M163 59v308h-31v56h89v0v-56v-306v0l-44 -60h-89l-51 60v0v0v605l51 66h89l44 -66v-89h-58v93h-68v-609l68 -2v0z" />
    <glyph glyph-name="h.002" horiz-adv-x="273" 
d="M170 733h59v-732h-59v366h-68v-366h-58v732h58v-306h68v306v0z" />
    <glyph glyph-name="i.002" horiz-adv-x="141" 
d="M44 0v732h58v-732h-58v0z" />
    <glyph glyph-name="j.002" horiz-adv-x="281" 
d="M170 734h58v-679l-58 -55h-71l-58 47v154h58v-131h71v664v0z" />
    <glyph glyph-name="k.002" horiz-adv-x="312" 
d="M290 733l-134 -303l134 -432h-61l-109 356l-12 -29v-327h-58v735h58v-283l121 283h61v0z" />
    <glyph glyph-name="l.002" horiz-adv-x="246" 
d="M199 -1h-152v735h58v-675h94v-60v0z" />
    <glyph glyph-name="m.002" horiz-adv-x="344" 
d="M242 262h-10l-51 -142h-10l-50 142h-10v-263h-58v735h58l60 -403h11l60 403h59v-735h-59v263v0z" />
    <glyph glyph-name="n.002" horiz-adv-x="329" 
d="M212 732h59v-732h-59l-104 445h-2v-445h-58v732h58v0h2l104 -445v445v0z" />
    <glyph glyph-name="o.002" horiz-adv-x="270" 
d="M233 666v-605l-45 -62v0h-99v0l-45 62v605l45 67v0h99v0zM175 61v610h-73v-610h73z" />
    <glyph glyph-name="p.002" horiz-adv-x="273" 
d="M57 -1v734h140l45 -67v-234l-45 -66h-82v-367h-58zM184 423v246h-69v-246h69z" />
    <glyph glyph-name="q.002" horiz-adv-x="286" 
d="M238 666v-667v0l-57 58v-58v0h-87v0l-45 62v605l45 67v0h100v0zM108 671v-610h72v610h-72z" />
    <glyph glyph-name="r.002" horiz-adv-x="269" 
d="M48 732h129l54 -58v-241l-40 -39l40 -39v-355h-58v366h-67v-366h-58v732zM173 423v247h-67v-247h67z" />
    <glyph glyph-name="s.002" 
d="M228 576h-58v95v0v0v0h-67v-247v0h58l58 -56v-306l-58 -60h-58l-59 60v140h61v-139h56v299h-58l-58 62v258l58 51h67l58 -62v-95v0z" />
    <glyph glyph-name="t.002" horiz-adv-x="235" 
d="M213 732v-47h-63v-686h-59v686h-63v47h63h59h63v0z" />
    <glyph glyph-name="u.002" horiz-adv-x="278" 
d="M106 733v-663v0h71v663h58v-685l-58 -47h-71l-58 47v685h58v0z" />
    <glyph glyph-name="v.002" horiz-adv-x="293" 
d="M153 309l39 424h57l-73 -733v0h-58v0l-73 733h57l39 -424h12v0z" />
    <glyph glyph-name="w.002" horiz-adv-x="394" 
d="M269 332l29 401h58l-34 -733h-59v0l-53 332h-12l-53 -332h-58l-36 732h58l29 -400h13l23 401h58l25 -401h12v0z" />
    <glyph glyph-name="x.002" horiz-adv-x="328" 
d="M288 733l-74 -367l74 -366h-58l-60 306h-11l-60 -306h-58l74 366l-74 367h58l60 -307h11l60 307h58v0z" />
    <glyph glyph-name="y.002" horiz-adv-x="328" 
d="M286 733l-94 -478v-255h-24h-10h-25v256l-94 477h58l60 -307h11l60 307h58v0z" />
    <glyph glyph-name="z.002" horiz-adv-x="231" 
d="M195 732v-47l-97 -639h97v-46h-155v46l97 639h-97v47h155v0z" />
    <glyph glyph-name="a.003" horiz-adv-x="242" 
d="M151 735l73 -735h-57l-19 201h-51l-20 -201h-57l73 735v0h58v0zM126 258h16l-14 166h-12l-14 -166h16h8z" />
    <glyph glyph-name="b.003" 
d="M231 684v-241l-40 -40l40 -39v-105v-193v0l-59 -68h-129v47v23v131v176v64v294h54h4h72zM101 680v-248h71v248h-71zM172 66v193v116h-71v-309h71z" />
    <glyph glyph-name="c.003" horiz-adv-x="242" 
d="M221 577h-58v94h-69v-610h69v138h58v-138l-44 -63h-90l-51 63v0v0v0v605l51 67h90l44 -67v-89v0z" />
    <glyph glyph-name="d.003" 
d="M184 733l44 -67v-5v-84v-378v-38v-100l-44 -63h-141v63v0v672h141zM170 577v84v10h-69v-610h69v100v38v378z" />
    <glyph glyph-name="e.003" horiz-adv-x="218" 
d="M197 671h-94v-245h94v-61h-94v-304h94v-63h-152v63v304v61v307h152v-62v0z" />
    <glyph glyph-name="f.003" horiz-adv-x="219" 
d="M195 671h-93v-244h93v-60h-93v-304v-63h-58v63v304v60v306h151v-62v0z" />
    <glyph glyph-name="g.003" horiz-adv-x="262" 
d="M170 59v308h-31v56h89v0v-56v-306v0l-44 -60h-89l-51 60v0v0v605l51 66h89l44 -66v-89h-58v93h-68v-609l68 -2v0z" />
    <glyph glyph-name="h.003" horiz-adv-x="273" 
d="M170 733h59v-732h-59v366h-68v-366h-58v732h58v-306h68v306v0z" />
    <glyph glyph-name="i.003" horiz-adv-x="148" 
d="M51 0v732h58v-732h-58v0z" />
    <glyph glyph-name="j.003" 
d="M170 734h58v-679l-58 -55h-71l-58 47v154h58v-131h71v664v0z" />
    <glyph glyph-name="k.003" horiz-adv-x="312" 
d="M290 733l-134 -303l134 -432h-61l-109 356l-12 -29v-327h-58v735h58v-283l121 283h61v0z" />
    <glyph glyph-name="l.003" horiz-adv-x="203" 
d="M184 -1h-152v735h58v-675h94v-60v0z" />
    <glyph glyph-name="m.003" horiz-adv-x="336" 
d="M232 262h-10l-51 -142h-10l-50 142h-10v-263h-58v735h58l60 -403h11l60 403h59v-735h-59v263v0z" />
    <glyph glyph-name="n.003" horiz-adv-x="312" 
d="M214 732h59v-732h-59l-104 445h-2v-445h-58v732h58v0h2l104 -445v445v0z" />
    <glyph glyph-name="o.003" horiz-adv-x="250" 
d="M225 666v-605l-45 -62v0h-99v0l-45 62v605l45 67v0h99v0zM167 61v610h-73v-610h73z" />
    <glyph glyph-name="p.003" horiz-adv-x="257" 
d="M33 -1v734h140l45 -67v-234l-45 -66h-82v-367h-58zM160 423v246h-69v-246h69z" />
    <glyph glyph-name="q.003" horiz-adv-x="286" 
d="M238 666v-667v0l-57 58v-58v0h-87v0l-45 62v605l45 67v0h100v0zM108 671v-610h72v610h-72z" />
    <glyph glyph-name="r.003" horiz-adv-x="269" 
d="M48 732h129l54 -58v-241l-40 -39l40 -39v-355h-58v366h-67v-366h-58v732zM173 423v247h-67v-247h67z" />
    <glyph glyph-name="s.003" 
d="M228 576h-58v95v0v0v0h-67v-247v0h58l58 -56v-306l-58 -60h-58l-59 60v140h61v-139h56v299h-58l-58 62v258l58 51h67l58 -62v-95v0z" />
    <glyph glyph-name="t.003" horiz-adv-x="235" 
d="M213 732v-47h-63v-686h-59v686h-63v47h63h59h63v0z" />
    <glyph glyph-name="u.003" horiz-adv-x="278" 
d="M106 733v-663v0h71v663h58v-685l-58 -47h-71l-58 47v685h58v0z" />
    <glyph glyph-name="v.003" horiz-adv-x="293" 
d="M153 309l39 424h57l-73 -733v0h-58v0l-73 733h57l39 -424h12v0z" />
    <glyph glyph-name="w.003" horiz-adv-x="352" 
d="M246 332l29 401h58l-34 -733h-59v0l-53 332h-12l-53 -332h-58l-36 732h58l29 -400h13l23 401h58l25 -401h12v0z" />
    <glyph glyph-name="x.003" horiz-adv-x="328" 
d="M288 733l-74 -367l74 -366h-58l-60 306h-11l-60 -306h-58l74 366l-74 367h58l60 -307h11l60 307h58v0z" />
    <glyph glyph-name="y.003" horiz-adv-x="289" 
d="M271 733l-94 -478v-255h-24h-10h-25v256l-94 477h58l60 -307h11l60 307h58v0z" />
    <glyph glyph-name="z.003" horiz-adv-x="231" 
d="M195 732v-47l-97 -639h97v-46h-155v46l97 639h-97v47h155v0z" />
    <glyph glyph-name="a.004" horiz-adv-x="242" 
d="M151 735l73 -735h-57l-19 201h-51l-20 -201h-57l73 735v0h58v0zM126 258h16l-14 166h-12l-14 -166h16h8z" />
    <glyph glyph-name="b.004" 
d="M231 684v-241l-40 -40l40 -39v-105v-193v0l-59 -68h-129v47v23v131v176v64v294h54h4h72zM101 680v-248h71v248h-71zM172 66v193v116h-71v-309h71z" />
    <glyph glyph-name="c.004" horiz-adv-x="242" 
d="M221 577h-58v94h-69v-610h69v138h58v-138l-44 -63h-90l-51 63v0v0v0v605l51 67h90l44 -67v-89v0z" />
    <glyph glyph-name="d.004" 
d="M184 733l44 -67v-5v-84v-378v-38v-100l-44 -63h-141v63v0v672h141zM170 577v84v10h-69v-610h69v100v38v378z" />
    <glyph glyph-name="e.004" horiz-adv-x="218" 
d="M197 671h-94v-245h94v-61h-94v-304h94v-63h-152v63v304v61v307h152v-62v0z" />
    <glyph glyph-name="f.004" horiz-adv-x="219" 
d="M195 671h-93v-244h93v-60h-93v-304v-63h-58v63v304v60v306h151v-62v0z" />
    <glyph glyph-name="g.004" horiz-adv-x="262" 
d="M170 59v308h-31v56h89v0v-56v-306v0l-44 -60h-89l-51 60v0v0v605l51 66h89l44 -66v-89h-58v93h-68v-609l68 -2v0z" />
    <glyph glyph-name="h.004" horiz-adv-x="273" 
d="M170 733h59v-732h-59v366h-68v-366h-58v732h58v-306h68v306v0z" />
    <glyph glyph-name="i.004" horiz-adv-x="148" 
d="M51 0v732h58v-732h-58v0z" />
    <glyph glyph-name="j.004" 
d="M170 734h58v-679l-58 -55h-71l-58 47v154h58v-131h71v664v0z" />
    <glyph glyph-name="k.004" horiz-adv-x="312" 
d="M290 733l-134 -303l134 -432h-61l-109 356l-12 -29v-327h-58v735h58v-283l121 283h61v0z" />
    <glyph glyph-name="l.004" horiz-adv-x="203" 
d="M184 -1h-152v735h58v-675h94v-60v0z" />
    <glyph glyph-name="m.004" horiz-adv-x="336" 
d="M232 262h-10l-51 -142h-10l-50 142h-10v-263h-58v735h58l60 -403h11l60 403h59v-735h-59v263v0z" />
    <glyph glyph-name="n.004" horiz-adv-x="312" 
d="M214 732h59v-732h-59l-104 445h-2v-445h-58v732h58v0h2l104 -445v445v0z" />
    <glyph glyph-name="o.004" horiz-adv-x="250" 
d="M225 666v-605l-45 -62v0h-99v0l-45 62v605l45 67v0h99v0zM167 61v610h-73v-610h73z" />
    <glyph glyph-name="p.004" horiz-adv-x="257" 
d="M33 -1v734h140l45 -67v-234l-45 -66h-82v-367h-58zM160 423v246h-69v-246h69z" />
    <glyph glyph-name="q.004" horiz-adv-x="286" 
d="M238 666v-667v0l-57 58v-58v0h-87v0l-45 62v605l45 67v0h100v0zM108 671v-610h72v610h-72z" />
    <glyph glyph-name="r.004" horiz-adv-x="269" 
d="M48 732h129l54 -58v-241l-40 -39l40 -39v-355h-58v366h-67v-366h-58v732zM173 423v247h-67v-247h67z" />
    <glyph glyph-name="s.004" 
d="M229 576h-58v95v0v0v0h-67v-247v0h58l58 -56v-306l-58 -60h-58l-59 60v140h61v-139h56v299h-58l-58 62v258l58 51h67l58 -62v-95v0z" />
    <glyph glyph-name="t.004" horiz-adv-x="235" 
d="M213 732v-47h-63v-686h-59v686h-63v47h63h59h63v0z" />
    <glyph glyph-name="u.004" horiz-adv-x="278" 
d="M106 733v-663v0h71v663h58v-685l-58 -47h-71l-58 47v685h58v0z" />
    <glyph glyph-name="v.004" horiz-adv-x="293" 
d="M153 309l39 424h57l-73 -733v0h-58v0l-73 733h57l39 -424h12v0z" />
    <glyph glyph-name="w.004" horiz-adv-x="352" 
d="M246 332l29 401h58l-34 -733h-59v0l-53 332h-12l-53 -332h-58l-36 732h58l29 -400h13l23 401h58l25 -401h12v0z" />
    <glyph glyph-name="x.004" horiz-adv-x="328" 
d="M288 733l-74 -367l74 -366h-58l-60 306h-11l-60 -306h-58l74 366l-74 367h58l60 -307h11l60 307h58v0z" />
    <glyph glyph-name="y.004" horiz-adv-x="289" 
d="M271 733l-94 -478v-255h-24h-10h-25v256l-94 477h58l60 -307h11l60 307h58v0z" />
    <glyph glyph-name="z.004" horiz-adv-x="231" 
d="M195 732v-47l-97 -639h97v-46h-155v46l97 639h-97v47h155v0z" />
    <glyph glyph-name="a.005" horiz-adv-x="242" 
d="M151 735l73 -735h-57l-19 201h-51l-20 -201h-57l73 735v0h58v0zM126 258h16l-14 166h-12l-14 -166h16h8z" />
    <glyph glyph-name="b.005" 
d="M231 684v-241l-40 -40l40 -39v-105v-193v0l-59 -68h-129v47v23v131v176v64v294h54h4h72zM101 680v-248h71v248h-71zM172 66v193v116h-71v-309h71z" />
    <glyph glyph-name="c.005" horiz-adv-x="242" 
d="M221 577h-58v94h-69v-610h69v138h58v-138l-44 -63h-90l-51 63v0v0v0v605l51 67h90l44 -67v-89v0z" />
    <glyph glyph-name="d.005" 
d="M184 733l44 -67v-5v-84v-378v-38v-100l-44 -63h-141v63v0v672h141zM170 577v84v10h-69v-610h69v100v38v378z" />
    <glyph glyph-name="e.005" horiz-adv-x="218" 
d="M197 671h-94v-245h94v-61h-94v-304h94v-63h-152v63v304v61v307h152v-62v0z" />
    <glyph glyph-name="f.005" horiz-adv-x="219" 
d="M195 671h-93v-244h93v-60h-93v-304v-63h-58v63v304v60v306h151v-62v0z" />
    <glyph glyph-name="g.005" horiz-adv-x="262" 
d="M170 59v308h-31v56h89v0v-56v-306v0l-44 -60h-89l-51 60v0v0v605l51 66h89l44 -66v-89h-58v93h-68v-609l68 -2v0z" />
    <glyph glyph-name="h.005" horiz-adv-x="273" 
d="M170 733h59v-732h-59v366h-68v-366h-58v732h58v-306h68v306v0z" />
    <glyph glyph-name="i.005" horiz-adv-x="148" 
d="M51 0v732h58v-732h-58v0z" />
    <glyph glyph-name="j.005" 
d="M170 734h58v-679l-58 -55h-71l-58 47v154h58v-131h71v664v0z" />
    <glyph glyph-name="k.005" horiz-adv-x="312" 
d="M290 733l-134 -303l134 -432h-61l-109 356l-12 -29v-327h-58v735h58v-283l121 283h61v0z" />
    <glyph glyph-name="l.005" horiz-adv-x="203" 
d="M184 -1h-152v735h58v-675h94v-60v0z" />
    <glyph glyph-name="m.005" horiz-adv-x="336" 
d="M232 262h-10l-51 -142h-10l-50 142h-10v-263h-58v735h58l60 -403h11l60 403h59v-735h-59v263v0z" />
    <glyph glyph-name="n.005" horiz-adv-x="312" 
d="M214 732h59v-732h-59l-104 445h-2v-445h-58v732h58v0h2l104 -445v445v0z" />
    <glyph glyph-name="o.005" horiz-adv-x="250" 
d="M225 666v-605l-45 -62v0h-99v0l-45 62v605l45 67v0h99v0zM167 61v610h-73v-610h73z" />
    <glyph glyph-name="p.005" horiz-adv-x="257" 
d="M33 -1v734h140l45 -67v-234l-45 -66h-82v-367h-58zM160 423v246h-69v-246h69z" />
    <glyph glyph-name="q.005" horiz-adv-x="286" 
d="M238 666v-667v0l-57 58v-58v0h-87v0l-45 62v605l45 67v0h100v0zM108 671v-610h72v610h-72z" />
    <glyph glyph-name="r.005" horiz-adv-x="269" 
d="M48 732h129l54 -58v-241l-40 -39l40 -39v-355h-58v366h-67v-366h-58v732zM173 423v247h-67v-247h67z" />
    <glyph glyph-name="s.005" 
d="M228 576h-58v95v0v0v0h-67v-247v0h58l58 -56v-306l-58 -60h-58l-59 60v140h61v-139h56v299h-58l-58 62v258l58 51h67l58 -62v-95v0z" />
    <glyph glyph-name="t.005" horiz-adv-x="235" 
d="M213 732v-47h-63v-686h-59v686h-63v47h63h59h63v0z" />
    <glyph glyph-name="u.005" horiz-adv-x="278" 
d="M106 733v-663v0h71v663h58v-685l-58 -47h-71l-58 47v685h58v0z" />
    <glyph glyph-name="v.005" horiz-adv-x="293" 
d="M153 309l39 424h57l-73 -733v0h-58v0l-73 733h57l39 -424h12v0z" />
    <glyph glyph-name="w.005" horiz-adv-x="359" 
d="M247 332l29 401h58l-34 -733h-59v0l-53 332h-12l-53 -332h-58l-36 732h58l29 -400h13l23 401h58l25 -401h12v0z" />
    <glyph glyph-name="x.005" horiz-adv-x="328" 
d="M288 733l-74 -367l74 -366h-58l-60 306h-11l-60 -306h-58l74 366l-74 367h58l60 -307h11l60 307h58v0z" />
    <glyph glyph-name="y.005" horiz-adv-x="289" 
d="M271 733l-94 -478v-255h-24h-10h-25v256l-94 477h58l60 -307h11l60 307h58v0z" />
    <glyph glyph-name="z.005" horiz-adv-x="231" 
d="M195 732v-47l-97 -639h97v-46h-155v46l97 639h-97v47h155v0z" />
    <glyph glyph-name="a.006" horiz-adv-x="242" 
d="M151 735l73 -735h-57l-19 201h-51l-20 -201h-57l73 735v0h58v0zM126 258h16l-14 166h-12l-14 -166h16h8z" />
    <glyph glyph-name="b.006" 
d="M231 684v-241l-40 -40l40 -39v-105v-193v0l-59 -68h-129v47v23v131v176v64v294h54h4h72zM101 680v-248h71v248h-71zM172 66v193v116h-71v-309h71z" />
    <glyph glyph-name="c.006" horiz-adv-x="242" 
d="M221 577h-58v94h-69v-610h69v138h58v-138l-44 -63h-90l-51 63v0v0v0v605l51 67h90l44 -67v-89v0z" />
    <glyph glyph-name="d.006" 
d="M184 733l44 -67v-5v-84v-378v-38v-100l-44 -63h-141v63v0v672h141zM170 577v84v10h-69v-610h69v100v38v378z" />
    <glyph glyph-name="e.006" horiz-adv-x="218" 
d="M197 671h-94v-245h94v-61h-94v-304h94v-63h-152v63v304v61v307h152v-62v0z" />
    <glyph glyph-name="f.006" horiz-adv-x="219" 
d="M195 671h-93v-244h93v-60h-93v-304v-63h-58v63v304v60v306h151v-62v0z" />
    <glyph glyph-name="g.006" horiz-adv-x="262" 
d="M170 59v308h-31v56h89v0v-56v-306v0l-44 -60h-89l-51 60v0v0v605l51 66h89l44 -66v-89h-58v93h-68v-609l68 -2v0z" />
    <glyph glyph-name="h.006" horiz-adv-x="273" 
d="M170 733h59v-732h-59v366h-68v-366h-58v732h58v-306h68v306v0z" />
    <glyph glyph-name="i.006" horiz-adv-x="148" 
d="M51 0v732h58v-732h-58v0z" />
    <glyph glyph-name="j.006" 
d="M170 734h58v-679l-58 -55h-71l-58 47v154h58v-131h71v664v0z" />
    <glyph glyph-name="k.006" horiz-adv-x="312" 
d="M290 733l-134 -303l134 -432h-61l-109 356l-12 -29v-327h-58v735h58v-283l121 283h61v0z" />
    <glyph glyph-name="l.006" horiz-adv-x="203" 
d="M184 -1h-152v735h58v-675h94v-60v0z" />
    <glyph glyph-name="m.006" horiz-adv-x="336" 
d="M232 262h-10l-51 -142h-10l-50 142h-10v-263h-58v735h58l60 -403h11l60 403h59v-735h-59v263v0z" />
    <glyph glyph-name="n.006" horiz-adv-x="312" 
d="M214 732h59v-732h-59l-104 445h-2v-445h-58v732h58v0h2l104 -445v445v0z" />
    <glyph glyph-name="o.006" horiz-adv-x="250" 
d="M225 666v-605l-45 -62v0h-99v0l-45 62v605l45 67v0h99v0zM167 61v610h-73v-610h73z" />
    <glyph glyph-name="p.006" horiz-adv-x="257" 
d="M33 -1v734h140l45 -67v-234l-45 -66h-82v-367h-58zM160 423v246h-69v-246h69z" />
    <glyph glyph-name="q.006" horiz-adv-x="286" 
d="M238 666v-667v0l-57 58v-58v0h-87v0l-45 62v605l45 67v0h100v0zM108 671v-610h72v610h-72z" />
    <glyph glyph-name="r.006" horiz-adv-x="269" 
d="M48 732h129l54 -58v-241l-40 -39l40 -39v-355h-58v366h-67v-366h-58v732zM173 423v247h-67v-247h67z" />
    <glyph glyph-name="s.006" 
d="M228 576h-58v95v0v0v0h-67v-247v0h58l58 -56v-306l-58 -60h-58l-59 60v140h61v-139h56v299h-58l-58 62v258l58 51h67l58 -62v-95v0z" />
    <glyph glyph-name="t.006" horiz-adv-x="235" 
d="M213 732v-47h-63v-686h-59v686h-63v47h63h59h63v0z" />
    <glyph glyph-name="u.006" horiz-adv-x="278" 
d="M106 733v-663v0h71v663h58v-685l-58 -47h-71l-58 47v685h58v0z" />
    <glyph glyph-name="v.006" horiz-adv-x="293" 
d="M153 309l39 424h57l-73 -733v0h-58v0l-73 733h57l39 -424h12v0z" />
    <glyph glyph-name="w.006" horiz-adv-x="359" 
d="M247 332l29 401h58l-34 -733h-59v0l-53 332h-12l-53 -332h-58l-36 732h58l29 -400h13l23 401h58l25 -401h12v0z" />
    <glyph glyph-name="x.006" horiz-adv-x="328" 
d="M288 733l-74 -367l74 -366h-58l-60 306h-11l-60 -306h-58l74 366l-74 367h58l60 -307h11l60 307h58v0z" />
    <glyph glyph-name="y.006" horiz-adv-x="289" 
d="M271 733l-94 -478v-255h-24h-10h-25v256l-94 477h58l60 -307h11l60 307h58v0z" />
    <glyph glyph-name="z.006" horiz-adv-x="231" 
d="M195 732v-47l-97 -639h97v-46h-155v46l97 639h-97v47h155v0z" />
    <glyph glyph-name="less.001" horiz-adv-x="833" 
d="M296 482l-180 -179l180 -180l-34 -34l-213 214l213 213l34 -34v0z" />
    <glyph glyph-name="quotesingle.001" horiz-adv-x="833" 
 />
    <glyph glyph-name="underscore.001" horiz-adv-x="833" 
 />
    </font>
</defs>
</svg>
